<svg width="92" height="96" viewBox="0 0 92 96" fill="none" xmlns="http://www.w3.org/2000/svg">
<path d="M18.7515 15.7631C18.7515 5.62978 29.5467 -3.02393 37.4047 1.01438C37.4047 1.01438 36.1045 16.3963 18.7515 15.7631ZM18.7216 15.7631C18.7216 5.62978 7.92635 -3.02393 0.0683594 1.01438C0.0683594 1.01438 1.36852 16.3963 18.7216 15.7631ZM72.4151 15.7631C89.7682 16.3963 91.0684 1.01438 91.0684 1.01438C83.2104 -3.02393 72.4151 5.62978 72.4151 15.7631ZM72.3853 15.7631C72.3853 5.62978 61.59 -3.02393 53.732 1.01438C53.732 1.01438 55.0322 16.3963 72.3853 15.7631ZM13.0156 96H28.5971V60.0915C28.5974 55.6557 30.3483 51.4016 33.4645 48.2652C36.5807 45.1287 40.807 43.3667 45.2138 43.3667C49.6206 43.3667 53.8469 45.1287 56.9631 48.2652C60.0793 51.4016 61.8301 55.6557 61.8305 60.0915V96H77.1674C77.945 96 78.6907 95.6891 79.2405 95.1356C79.7904 94.5822 80.0992 93.8316 80.0992 93.0489V38.8087H10.2903V93.2581C10.2906 93.9854 10.5779 94.6828 11.089 95.197C11.6 95.7112 12.293 96 13.0156 96ZM45.2274 47.1793C37.7457 47.1793 31.6824 53.4481 31.6824 61.1814V96H32.7434C33.2799 96 33.7945 95.7855 34.1738 95.4036C34.5532 95.0217 34.7663 94.5038 34.7663 93.9638V61.1965C34.7663 55.2245 39.4493 50.3834 45.2274 50.3834C51.004 50.3834 55.6884 55.2245 55.6884 61.1965V93.9638C55.6884 94.5038 55.9015 95.0217 56.2809 95.4036C56.6603 95.7855 57.1748 96 57.7113 96H58.7723V61.1814C58.7723 53.4481 52.7077 47.1793 45.2274 47.1793ZM25.4954 21.7502V23.7946H64.7691V21.7502C64.7695 21.0229 65.0567 20.3254 65.5678 19.8113C66.0788 19.2971 66.7718 19.0083 67.4944 19.0083H77.2571C77.9784 19.0101 78.6695 19.2998 79.1788 19.8138C79.6882 20.3278 79.9743 21.0242 79.9743 21.7502V35.3899H10.2903V21.7502C10.2906 21.0229 10.5779 20.3254 11.089 19.8113C11.6 19.2971 12.293 19.0083 13.0156 19.0083H22.7783C23.4995 19.0101 24.1906 19.2998 24.7 19.8138C25.2094 20.3278 25.4954 21.0242 25.4954 21.7502ZM59.4122 33.5041H64.7691V25.6804H59.4122V33.5041ZM52.7552 33.5041H57.5401V25.6804H52.7552V33.5041ZM46.0982 33.5041H50.8831V25.6804H46.0982V33.5041ZM39.4412 33.5041H44.2261V25.6804H39.4412V33.5041ZM32.7842 33.5041H37.5691V25.6804H32.7842V33.5041ZM25.4954 25.6804V33.5041H30.9121V25.6804H25.4954Z" fill="#329336"/>
</svg>
